<svg width="30" height="32" viewBox="0 0 30 32" fill="none" xmlns="http://www.w3.org/2000/svg">
<path d="M10.4903 8.99601C10.7562 9.0069 11.0503 9.01935 11.3298 9.64057C11.5208 10.0653 11.8421 10.857 12.0982 11.4879C12.2869 11.9529 12.4402 12.3305 12.4798 12.4097C12.5731 12.5962 12.6352 12.814 12.5109 13.0632C12.4923 13.1004 12.475 13.1355 12.4586 13.1691C12.3651 13.3599 12.2965 13.5 12.1382 13.6852C12.0762 13.7577 12.012 13.8357 11.9479 13.9137C11.8191 14.0703 11.6904 14.227 11.5785 14.3385C11.3914 14.5245 11.1971 14.7266 11.4147 15.0997C11.6324 15.4732 12.3811 16.6943 13.4901 17.683C14.6814 18.7453 15.7164 19.1946 16.242 19.4227C16.3452 19.4675 16.4288 19.5038 16.49 19.5345C16.8631 19.7211 17.0808 19.69 17.2984 19.4407C17.5161 19.1919 18.2306 18.3519 18.4793 17.9788C18.728 17.6053 18.9768 17.6675 19.3188 17.7918C19.6608 17.9162 21.4948 18.8188 21.8679 19.0054C21.9407 19.0417 22.0087 19.0746 22.0717 19.105C22.3321 19.2307 22.5079 19.3155 22.583 19.4407C22.6763 19.5967 22.6763 20.3433 22.3654 21.2143C22.0545 22.0854 20.5314 22.9255 19.8473 22.9877C19.7815 22.9937 19.7161 23.0014 19.6488 23.0093C19.0167 23.0836 18.2188 23.1774 15.3707 22.0544C11.8663 20.6723 9.55556 17.2476 9.07818 16.54C9.03903 16.482 9.01221 16.4423 8.99808 16.4234L8.99392 16.4179C8.79277 16.149 7.4748 14.3877 7.4748 12.5651C7.4748 10.8472 8.31927 9.9466 8.70782 9.53226C8.73437 9.50394 8.75879 9.4779 8.78067 9.45402C9.12242 9.0807 9.52667 8.98728 9.77536 8.98728C9.78899 8.98728 9.80262 8.98728 9.81625 8.98728C10.0511 8.98725 10.2848 8.98722 10.4903 8.99601Z" fill="white"/>
<path fill-rule="evenodd" clip-rule="evenodd" d="M2.13856 23.3209C0.813254 21.0619 0.120482 18.5016 0.120482 15.851C0.120482 7.62815 6.83735 0.941406 15.0602 0.941406C19.0663 0.941406 22.8012 2.50767 25.6325 5.30888C28.4337 8.1402 30 11.8751 30 15.8812C30 24.1041 23.2831 30.7908 15.0602 30.7908C12.5602 30.7908 10.0904 30.1884 7.92169 28.9836L0 31.0619L2.13856 23.3209ZM4.54819 22.4776L4.8494 22.9294L3.58434 27.5077L8.28313 26.2727L8.73494 26.5438C10.6325 27.6884 12.8313 28.2908 15.0602 28.2908C21.8976 28.2908 27.4699 22.7185 27.4699 15.8812C27.4699 12.5679 26.1747 9.43538 23.8253 7.08599C21.506 4.76671 18.3735 3.47153 15.0602 3.47153C8.22289 3.47153 2.6506 9.0137 2.6506 15.8812C2.6506 18.2004 3.31325 20.4896 4.54819 22.4776Z" fill="white"/>
</svg>
