<svg width="30" height="30" viewBox="0 0 30 30" fill="none" xmlns="http://www.w3.org/2000/svg">
<path fill-rule="evenodd" clip-rule="evenodd" d="M13.7658 7.05987C14.3304 7.89126 14.6145 8.88145 14.6145 10.0379C14.6145 11.228 14.3304 12.1864 13.7587 12.9095C13.4355 13.3149 12.965 13.6867 12.3418 14.0211C13.2881 14.3854 14.0001 14.959 14.4848 15.7437C14.966 16.5265 15.2057 17.4812 15.2057 18.6021C15.2057 19.7567 14.9323 20.7955 14.3801 21.711C14.0303 22.3182 13.5917 22.8319 13.068 23.2467C12.4767 23.7231 11.7807 24.0482 10.9746 24.2257C10.1685 24.4032 9.29672 24.4891 8.35391 24.4891H0V4.98047H8.95937C11.2214 5.01783 12.8212 5.7091 13.7658 7.05987ZM3.69667 8.36954V12.6741H8.20476C9.00731 12.6741 9.66248 12.5115 10.1667 12.1883C10.6657 11.867 10.9196 11.2953 10.9196 10.477C10.9196 9.56711 10.5875 8.96739 9.92349 8.67407C9.34999 8.4723 8.62024 8.36954 7.73247 8.36954H3.69667ZM3.69667 15.9006V21.1019H8.19766C9.00198 21.1019 9.62875 20.9879 10.0762 20.76C10.8894 20.334 11.2942 19.5232 11.2942 18.3256C11.2942 17.3074 10.9036 16.6124 10.1152 16.2313C9.67313 16.0202 9.05525 15.9081 8.26158 15.9006H3.69667ZM26.4147 10.3574C27.3735 10.8077 28.1618 11.5195 28.7815 12.491C29.3479 13.3485 29.7119 14.3424 29.877 15.4728C29.9729 16.136 30.0137 17.0907 29.996 18.3368H20.0085C20.0671 19.7848 20.5412 20.7992 21.4432 21.3803C21.9918 21.7427 22.6505 21.9221 23.4211 21.9221C24.2343 21.9221 24.9002 21.7035 25.4097 21.2626C25.6903 21.0234 25.9353 20.6928 26.1484 20.2687H29.8077C29.7119 21.1243 29.268 21.9931 28.4796 22.8786C27.2527 24.2799 25.5322 24.9805 23.3235 24.9805C21.4982 24.9805 19.886 24.3901 18.4958 23.2056C17.0967 22.023 16.4024 20.0968 16.4024 17.4326C16.4024 14.931 17.031 13.016 18.288 11.6801C19.5487 10.3499 21.1822 9.68108 23.1903 9.68108C24.3835 9.68108 25.4595 9.90527 26.4147 10.3574ZM21.0526 13.6157C20.5465 14.165 20.2269 14.9104 20.0973 15.8483H26.2744C26.2105 14.8469 25.8891 14.0884 25.321 13.569C24.7457 13.0515 24.0372 12.7918 23.1921 12.7918C22.2741 12.7918 21.5586 13.0664 21.0526 13.6157ZM19.1705 8.3191H27.1143V5.89219H19.1705V8.3191Z" fill="#20EB00"/>
</svg>
